<svg xmlns="http://www.w3.org/2000/svg" width="14" height="6" viewBox="0 0 14 6" fill="none" class="mt-03">
                                        <path fill-rule="evenodd" clip-rule="evenodd" d="M3.04953 2.42633C1.8325 1.56584 0.67034 1.2 0.113525 1.2V0C1.07338 0 2.51122 0.534159 3.84003 1.47367C4.86479 2.19822 5.87815 3.19989 6.61353 4.48107C7.3489 3.19989 8.36226 2.19822 9.38702 1.47367C10.7158 0.534159 12.1537 0 13.1135 0V1.2C12.5567 1.2 11.3946 1.56584 10.1775 2.42633C9.03311 3.23547 7.92033 4.42834 7.30175 6H6.61353L6.61353 6L6.61352 6H5.9253C5.30672 4.42834 4.19394 3.23547 3.04953 2.42633Z" fill="currentColor"></path>
                                    </svg>