<svg xmlns="http://www.w3.org/2000/svg" width="17" height="17" viewBox="0 0 17 17" fill="none">
                                        <path fill-rule="evenodd" clip-rule="evenodd" d="M11.5111 11.6277C10.5016 12.6081 9.12422 13.2117 7.60587 13.2117C4.50983 13.2117 2 10.7019 2 7.60587C2 4.50983 4.50983 2 7.60587 2C10.7019 2 13.2117 4.50983 13.2117 7.60587C13.2117 9.12422 12.6081 10.5016 11.6277 11.5111L11.5111 11.6277ZM11.91 12.6172C10.7539 13.611 9.25005 14.2117 7.60587 14.2117C3.95755 14.2117 1 11.2542 1 7.60587C1 3.95755 3.95755 1 7.60587 1C11.2542 1 14.2117 3.95755 14.2117 7.60587C14.2117 9.25005 13.611 10.7539 12.6172 11.91L15.8865 15.1793L15.1793 15.8865L11.91 12.6172Z" fill="currentColor"></path>
                                        <path d="M11.5111 11.6277L11.8594 11.9864L11.8646 11.9813L11.5111 11.6277ZM11.6277 11.5111L11.9813 11.8647L11.9864 11.8594L11.6277 11.5111ZM11.91 12.6172L12.2636 12.2636L11.9357 11.9357L11.5841 12.238L11.91 12.6172ZM12.6172 11.91L12.238 11.5841L11.9357 11.9357L12.2636 12.2636L12.6172 11.91ZM15.8865 15.1793L16.24 15.5329L16.5936 15.1793L16.24 14.8258L15.8865 15.1793ZM15.1793 15.8865L14.8258 16.24L15.1793 16.5936L15.5329 16.24L15.1793 15.8865ZM7.60587 13.7117C9.25945 13.7117 10.7604 13.0537 11.8594 11.9864L11.1627 11.269C10.2428 12.1624 8.98898 12.7117 7.60587 12.7117V13.7117ZM1.5 7.60587C1.5 10.978 4.23369 13.7117 7.60587 13.7117V12.7117C4.78597 12.7117 2.5 10.4258 2.5 7.60587H1.5ZM7.60587 1.5C4.23369 1.5 1.5 4.23369 1.5 7.60587H2.5C2.5 4.78597 4.78597 2.5 7.60587 2.5V1.5ZM13.7117 7.60587C13.7117 4.23369 10.978 1.5 7.60587 1.5V2.5C10.4258 2.5 12.7117 4.78597 12.7117 7.60587H13.7117ZM11.9864 11.8594C13.0537 10.7604 13.7117 9.25945 13.7117 7.60587H12.7117C12.7117 8.98898 12.1624 10.2428 11.269 11.1627L11.9864 11.8594ZM11.8646 11.9813L11.9813 11.8646L11.2742 11.1575L11.1575 11.2742L11.8646 11.9813ZM7.60587 14.7117C9.37412 14.7117 10.9926 14.0652 12.236 12.9963L11.5841 12.238C10.5152 13.1569 9.12599 13.7117 7.60587 13.7117V14.7117ZM0.5 7.60587C0.5 11.5303 3.6814 14.7117 7.60587 14.7117V13.7117C4.23369 13.7117 1.5 10.978 1.5 7.60587H0.5ZM7.60587 0.5C3.6814 0.5 0.5 3.6814 0.5 7.60587H1.5C1.5 4.23369 4.23369 1.5 7.60587 1.5V0.5ZM14.7117 7.60587C14.7117 3.6814 11.5303 0.5 7.60587 0.5V1.5C10.978 1.5 13.7117 4.23369 13.7117 7.60587H14.7117ZM12.9963 12.236C14.0652 10.9926 14.7117 9.37412 14.7117 7.60587H13.7117C13.7117 9.12599 13.1569 10.5152 12.238 11.5841L12.9963 12.236ZM12.2636 12.2636L15.5329 15.5329L16.24 14.8258L12.9707 11.5565L12.2636 12.2636ZM15.5329 14.8258L14.8258 15.5329L15.5329 16.24L16.24 15.5329L15.5329 14.8258ZM15.5329 15.5329L12.2636 12.2636L11.5565 12.9707L14.8258 16.24L15.5329 15.5329Z" fill="#fff"></path>
                                    </svg>