<svg xmlns="http://www.w3.org/2000/svg" width="18" height="18" viewBox="0 0 18 18" fill="none">
                                        <path d="M10.6759 1H7.32411C3.8314 1 1 3.63944 1 6.89536V11.1046C1 14.3606 3.8314 17 7.32411 17H10.6759C14.1686 17 17 14.3606 17 11.1046V6.89536C17 3.63944 14.1686 1 10.6759 1Z" stroke="currentColor" stroke-width="1.5" stroke-miterlimit="10"></path>
                                        <path opacity="0.4" fill-rule="evenodd" clip-rule="evenodd" d="M9.29418 12.7907V11.4432H7.83463V12.7907H9.29418ZM9.29418 10.7694V10.3349C10.3492 10.045 11.1186 9.14267 11.1186 8.07442C11.1186 6.77204 9.97505 5.71628 8.56441 5.71628C7.32525 5.71628 6.29215 6.53098 6.05933 7.61185L7.49077 7.87619C7.59059 7.41294 8.03333 7.06379 8.56441 7.06379C9.16897 7.06379 9.65907 7.51626 9.65907 8.07442C9.65907 8.63256 9.16897 9.08505 8.56441 9.08505C8.16135 9.08505 7.83463 9.38669 7.83463 9.75881V10.7694H9.29418Z" fill="currentColor"></path>
                                    </svg>