<svg xmlns="http://www.w3.org/2000/svg" width="13" height="15" viewBox="0 0 13 15" fill="none">
                                                    <path d="M1 2.66967C1 1.90998 1 1.53013 1.16686 1.31807C1.31227 1.13326 1.53485 1.01765 1.77687 1.00119C2.05461 0.982329 2.39036 1.18772 3.06203 1.59855L10.9592 6.42893C11.542 6.78532 11.8335 6.96359 11.934 7.19025C12.022 7.38826 12.022 7.61173 11.934 7.80974C11.8335 8.0364 11.542 8.21467 10.9592 8.57106L3.06203 13.4014C2.39036 13.8123 2.05461 14.0177 1.77687 13.9988C1.53485 13.9824 1.31227 13.8667 1.16686 13.6819C1 13.4699 1 13.0901 1 12.3304V2.66967Z" fill="currentColor" fill-opacity="0.2" stroke="white" stroke-width="2" stroke-linecap="round" stroke-linejoin="round"></path>
                                                </svg>