<svg xmlns="http://www.w3.org/2000/svg" width="19" height="22" viewBox="0 0 19 22" fill="none">
                                        <path d="M0.500002 20.1165V20.1156L0.500002 1.01253C0.500002 1.01249 0.500002 1.01236 0.500002 1.01233C0.500066 0.910857 0.530615 0.810752 0.589244 0.724242C0.591074 0.721542 0.59293 0.718858 0.59481 0.71619L10.6741 10.564L0.594806 20.4127C0.592763 20.4099 0.59075 20.407 0.588767 20.404C0.530201 20.3178 0.49981 20.2178 0.500002 20.1165ZM6.11951 17.868L12.1357 11.9917L13.7395 13.5582L6.11951 17.868ZM13.5974 10.564L15.5924 8.61627L18.2277 10.1073C18.3124 10.1553 18.3812 10.2233 18.4285 10.3034C18.4756 10.3835 18.5 10.4733 18.5 10.564C18.5 10.6547 18.4756 10.7445 18.4285 10.8245L18.8591 11.0785L18.4285 10.8245C18.3813 10.9045 18.3125 10.9725 18.2279 11.0205C18.2279 11.0205 18.2278 11.0206 18.2277 11.0206L15.5914 12.5117L13.5974 10.564ZM6.11837 3.25886L13.7405 7.56871L12.1357 9.13624L6.11837 3.25886Z" stroke="white"></path>
                                    </svg>