<svg xmlns="http://www.w3.org/2000/svg" width="16" height="16" viewBox="0 0 16 16" fill="none">
                                                <path d="M9.17139 0.726594C5.51213 0.222225 2.04172 2.49525 1.04069 6.05197C0.0396634 9.60872 1.81483 13.359 5.19965 14.8384C5.15522 14.2701 5.19569 13.6984 5.31972 13.1421C5.4563 12.5216 6.27859 9.10053 6.27859 9.10053C6.11473 8.73365 6.03278 8.3354 6.03845 7.9336C6.03845 6.83496 6.67237 6.01527 7.46108 6.01527C7.74773 6.011 8.02211 6.13167 8.21274 6.34587C8.40338 6.56007 8.49148 6.84665 8.45405 7.13096C8.45405 7.79696 8.02618 8.80453 7.80366 9.74943C7.71385 10.1011 7.79648 10.4745 8.02625 10.7554C8.25602 11.0362 8.60563 11.1911 8.96796 11.1726C10.3718 11.1726 11.3136 9.37375 11.3136 7.25052C11.3136 5.62249 10.2352 4.40433 8.24862 4.40433C7.2882 4.3672 6.35454 4.72549 5.66534 5.39565C4.97614 6.06581 4.59167 6.98929 4.60157 7.95069C4.58042 8.47834 4.75058 8.99585 5.08072 9.40793C5.20772 9.50241 5.25672 9.66968 5.20079 9.81779C5.16665 9.95436 5.08072 10.2789 5.04657 10.3984C5.03218 10.4802 4.97986 10.5503 4.90556 10.5873C4.83127 10.6244 4.74381 10.624 4.66986 10.5863C3.64557 10.1764 3.163 9.04926 3.163 7.76285C3.163 5.65665 4.92707 3.13494 8.45524 3.13494C11.2635 3.13494 13.13 5.18988 13.13 7.38709C13.13 10.2789 11.5202 12.4534 9.1404 12.4534C8.41751 12.4763 7.73301 12.1286 7.32511 11.5312C7.32511 11.5312 6.89716 13.2446 6.8129 13.569C6.64092 14.1289 6.38702 14.6603 6.0595 15.1458C6.74203 15.3529 7.45176 15.4565 8.16503 15.4533C10.1271 15.4545 12.0092 14.6753 13.3963 13.2871C14.7834 11.8989 15.5616 10.0158 15.5593 8.05316C15.5572 4.35814 12.8307 1.23096 9.17139 0.726594Z" fill="currentColor"></path>
                                            </svg>