<svg xmlns="http://www.w3.org/2000/svg" width="19" height="16" viewBox="0 0 19 16" fill="none">
                                                <path d="M9.51528 0.656738C9.98947 0.659457 11.1759 0.671406 12.4364 0.724002L12.8834 0.744302C14.1525 0.806895 15.4206 0.913825 16.0496 1.0965C16.8885 1.342 17.5479 2.05833 17.7707 2.96636C18.1256 4.40827 18.17 7.22255 18.1755 7.9036L18.1763 8.04473V8.05463C18.1763 8.05463 18.1763 8.05805 18.1763 8.06462L18.1755 8.20575C18.17 8.8868 18.1256 11.7011 17.7707 13.143C17.5448 14.0543 16.8854 14.7707 16.0496 15.0128C15.4206 15.1955 14.1525 15.3024 12.8834 15.365L12.4364 15.3853C11.1759 15.4379 9.98947 15.4498 9.51528 15.4526L9.30717 15.4534H9.29793C9.29793 15.4534 9.29483 15.4534 9.2887 15.4534L9.08077 15.4526C8.07716 15.4469 3.8809 15.3996 2.5463 15.0128C1.70737 14.7673 1.04799 14.051 0.825102 13.143C0.470261 11.7011 0.425904 8.8868 0.420364 8.20575V7.9036C0.425904 7.22255 0.470261 4.40827 0.825102 2.96636C1.05108 2.05497 1.71046 1.33864 2.5463 1.0965C3.8809 0.709667 8.07716 0.662491 9.08077 0.656738H9.51528ZM7.52227 4.81772V11.2916L12.8493 8.05463L7.52227 4.81772Z" fill="currentColor"></path>
                                            </svg>