<svg xmlns="http://www.w3.org/2000/svg" width="17" height="16" viewBox="0 0 17 16" fill="none">
                                        <path opacity="0.4" d="M9.05447 14.8571H6.97064V12.0787C6.97064 9.20445 9.31795 6.85715 12.1922 6.85715H14.9706V8.94098H12.1922C10.4676 8.94098 9.05447 10.3422 9.05447 12.0787V14.8571Z" fill="currentColor"></path>
                                        <path fill-rule="evenodd" clip-rule="evenodd" d="M10.9706 0H5.25635C2.42207 0 0.113495 2.29714 0.113495 5.14286V10.8571C0.113495 13.7029 2.42207 16 5.25635 16H7.81078C8.34122 16 8.84992 15.7893 9.225 15.4142L15.5277 9.1115C15.9028 8.73643 16.1135 8.22772 16.1135 7.69729V5.14286C16.1135 2.29714 13.8164 0 10.9706 0ZM8.51642 13.6999C8.14135 14.075 7.63264 14.2857 7.10221 14.2857H5.25635C3.35921 14.2857 1.82778 12.7543 1.82778 10.8571V5.14286C1.82778 3.24571 3.35921 1.71429 5.25635 1.71429H10.9706C12.8678 1.71429 14.3992 3.24571 14.3992 5.14286V6.98872C14.3992 7.51915 14.1885 8.02786 13.8134 8.40293L8.51642 13.6999Z" fill="currentColor"></path>
                                    </svg>