<svg xmlns="http://www.w3.org/2000/svg" width="14" height="16" viewBox="0 0 14 16" fill="none">
                                                <path d="M10.0452 5.27725V10.6445C10.0452 13.3004 7.81249 15.4534 5.0582 15.4534C2.30396 15.4534 0.0711975 13.3004 0.0711975 10.6445C0.0711975 7.98853 2.30396 5.83555 5.0582 5.83555C5.45433 5.83555 5.83963 5.88008 6.20905 5.96423V8.30422C5.86027 8.14442 5.47005 8.05504 5.0582 8.05504C3.57514 8.05504 2.37289 9.21436 2.37289 10.6445C2.37289 12.0745 3.57514 13.2339 5.0582 13.2339C6.54126 13.2339 7.74351 12.0745 7.74351 10.6445V0.656738H10.0452C10.0452 2.69972 11.7627 4.35589 13.8814 4.35589V6.57538C12.4298 6.57538 11.096 6.08952 10.0452 5.27725Z" fill="currentColor"></path>
                                            </svg>