<svg xmlns="http://www.w3.org/2000/svg" width="16" height="15" viewBox="0 0 16 15" fill="none">
                                                    <path d="M0.8 0H15.2C15.6418 0 16 0.3731 16 0.833333V14.1667C16 14.6269 15.6418 15 15.2 15H0.8C0.358176 15 0 14.6269 0 14.1667V0.833333C0 0.3731 0.358176 0 0.8 0ZM7.6 8.75V7.5H6.8V5H5.6V7.5H4.4V5H3.2V8.75H5.6V10H6.8V8.75H7.6ZM12.8 10L11 7.5L12.8 5H11.4L10 6.875V5H8.8V10H10V8.125L11.4 10H12.8Z" fill="#999999"></path>
                                                </svg>