<svg xmlns="http://www.w3.org/2000/svg" width="17" height="22" viewBox="0 0 17 22" fill="none">
                                        <path d="M16.4408 7.22358C16.3198 7.31809 14.1836 8.52991 14.1836 11.2245C14.1836 14.3412 16.9019 15.4438 16.9832 15.4711C16.9707 15.5383 16.5514 16.9812 15.5501 18.4513C14.6572 19.745 13.7247 21.0367 12.3061 21.0367C10.8875 21.0367 10.5225 20.2071 8.88485 20.2071C7.28896 20.2071 6.72153 21.064 5.42395 21.064C4.12638 21.064 3.22099 19.8668 2.18001 18.3967C0.974225 16.6703 0 13.9884 0 11.4429C0 7.36009 2.63687 5.19478 5.23203 5.19478C6.61096 5.19478 7.76042 6.10627 8.62617 6.10627C9.45019 6.10627 10.7353 5.14017 12.304 5.14017C12.8986 5.14017 15.0348 5.19478 16.4408 7.22358ZM11.5593 3.4117C12.2081 2.63672 12.667 1.56141 12.667 0.486107C12.667 0.336992 12.6545 0.185777 12.6274 0.0639648C11.5718 0.103869 10.3159 0.771736 9.55867 1.65592C8.96412 2.33639 8.40921 3.4117 8.40921 4.50171C8.40921 4.66552 8.43633 4.82934 8.44885 4.88185C8.5156 4.89445 8.62408 4.90915 8.73256 4.90915C9.67967 4.90915 10.8708 4.27069 11.5593 3.4117Z" fill="currentColor"></path>
                                    </svg>